<svg width="100%" height="100%" viewBox="0 0 342 385" fill="none" xmlns="http://www.w3.org/2000/svg">
<line x1="101.645" y1="37" x2="101.645" y2="333" stroke="#C6E8EA" stroke-width="3"/>
<line x1="100.388" y1="36.0801" x2="146.56" y2="48.4519" stroke="#C6E8EA" stroke-width="3"/>
<line x1="143.463" y1="30.8072" x2="182.604" y2="41.295" stroke="#C6E8EA" stroke-width="3"/>
<line x1="100.546" y1="331.503" x2="208.562" y2="360.445" stroke="#C6E8EA" stroke-width="3"/>
<line x1="145.324" y1="195.299" x2="208.699" y2="212.28" stroke="#C6E8EA" stroke-width="3"/>
<line x1="181.591" y1="167.332" x2="235.476" y2="181.77" stroke="#C6E8EA" stroke-width="3"/>
<line x1="234.872" y1="258.792" x2="206.872" y2="213.792" stroke="#C6E8EA" stroke-width="3"/>
<line x1="258.808" y1="221.832" x2="234.614" y2="182.949" stroke="#C6E8EA" stroke-width="3"/>
<line x1="236.645" y1="258" x2="236.645" y2="346" stroke="#C6E8EA" stroke-width="3"/>
<line x1="260.645" y1="221" x2="260.645" y2="296" stroke="#C6E8EA" stroke-width="3"/>
<line x1="207.401" y1="360.698" x2="235.401" y2="344.698" stroke="#C6E8EA" stroke-width="3"/>
<line x1="146.561" y1="49.4945" x2="124.561" y2="112.495" stroke="#C6E8EA" stroke-width="3"/>
<line x1="182.494" y1="42.4621" x2="163.618" y2="96.5142" stroke="#C6E8EA" stroke-width="3"/>
<line x1="144.692" y1="197.372" x2="122.692" y2="111.372" stroke="#C6E8EA" stroke-width="3"/>
<line x1="180.66" y1="169.38" x2="161.724" y2="95.3635" stroke="#C6E8EA" stroke-width="3"/>
<line x1="99.9426" y1="36.5138" x2="143.943" y2="30.5138" stroke="#C6E8EA" stroke-width="3"/>
<line x1="144.866" y1="48.5261" x2="181.866" y2="41.5261" stroke="#C6E8EA" stroke-width="3"/>
<line x1="123.576" y1="110.612" x2="162.576" y2="94.6123" stroke="#C6E8EA" stroke-width="3"/>
<line x1="145.224" y1="195.816" x2="181.224" y2="167.816" stroke="#C6E8EA" stroke-width="3"/>
<line x1="207.032" y1="212.995" x2="235.032" y2="181.995" stroke="#C6E8EA" stroke-width="3"/>
<line x1="234.887" y1="257.184" x2="258.887" y2="220.184" stroke="#C6E8EA" stroke-width="3"/>
<line x1="234.793" y1="345.351" x2="258.793" y2="295.351" stroke="#C6E8EA" stroke-width="3"/>
<line x1="154.194" y1="193.782" x2="217.569" y2="210.763" stroke="#E2E07E" stroke-width="2"/>
<line x1="190.462" y1="165.815" x2="244.346" y2="180.253" stroke="#E2E07E" stroke-width="2"/>
<line x1="241.161" y1="188.179" x2="239.161" y2="177.179" stroke="#E2E07E" stroke-width="2"/>
<line x1="160.161" y1="199.179" x2="158.161" y2="188.179" stroke="#E2E07E" stroke-width="2"/>
<line x1="241.145" y1="255" x2="241.145" y2="343" stroke="#E2E07E" stroke-width="2"/>
<line x1="240.991" y1="254.466" x2="264.991" y2="292.466" stroke="#E2E07E" stroke-width="2"/>
<line x1="265.145" y1="218" x2="265.145" y2="293" stroke="#E2E07E" stroke-width="2"/>
<line x1="152.089" y1="51.3297" x2="130.089" y2="114.33" stroke="#E2E07E" stroke-width="2"/>
<line x1="150.959" y1="51.0174" x2="187.959" y2="44.0174" stroke="#E2E07E" stroke-width="2"/>
<line x1="185.251" y1="47.5528" x2="188.251" y2="41.5528" stroke="#E2E07E" stroke-width="2"/>
<line x1="129.766" y1="113.075" x2="168.766" y2="97.0748" stroke="#E2E07E" stroke-width="2"/>
<line x1="168.159" y1="101.164" x2="167.159" y2="95.1644" stroke="#E2E07E" stroke-width="2"/>
<line x1="154.531" y1="194.211" x2="190.531" y2="166.211" stroke="#E2E07E" stroke-width="2"/>
<line x1="216.403" y1="211.33" x2="244.403" y2="180.33" stroke="#E2E07E" stroke-width="2"/>
<line x1="261.271" y1="224.514" x2="266.271" y2="215.514" stroke="#E2E07E" stroke-width="2"/>
<line x1="238.251" y1="345.553" x2="243.251" y2="335.553" stroke="#E2E07E" stroke-width="2"/>
<line x1="73.478" y1="13.8533" x2="154.478" y2="277.853" stroke="#E2E07E" stroke-opacity="0.45" stroke-dasharray="2 4 6 8"/>
<line x1="314.819" y1="328.466" x2="185.819" y2="278.466" stroke="#E2E07E" stroke-opacity="0.45" stroke-dasharray="2 4 6 8"/>
<line x1="59.7393" y1="367.573" x2="167.739" y2="301.573" stroke="#E2E07E" stroke-opacity="0.45" stroke-dasharray="2 4 6 8"/>
<!-- <path d="M25.9531 254.72C30.0065 254.72 33.4998 255.84 36.4331 258.08C39.4198 260.32 40.9131 263.867 40.9131 268.72C40.9131 275.227 38.1665 281.973 32.6731 288.96C29.9531 292.427 27.4198 295.413 25.0731 297.92C22.7265 300.427 19.7398 303.387 16.1131 306.8H40.7531L42.3531 293.6L43.8731 294L42.6731 308H10.0331L9.15313 306.8C18.1131 298.107 24.7531 290.8 29.0731 284.88C33.3931 278.907 35.5531 273.493 35.5531 268.64C35.5531 266.08 34.9665 263.493 33.7931 260.88C33.0998 259.44 32.0065 258.267 30.5131 257.36C29.0731 256.453 27.3931 256 25.4731 256C22.0065 256 17.9798 256.96 13.3931 258.88L11.1531 259.76L10.7531 258.96C12.9398 257.787 15.4465 256.8 18.2731 256C21.0998 255.147 23.6598 254.72 25.9531 254.72ZM75.1269 254.16C70.7535 254.16 67.0202 256.56 63.9269 261.36C60.8335 266.16 59.2869 272.8 59.2869 281.28C59.2869 289.76 60.7802 296.187 63.7669 300.56C66.7535 304.933 70.4602 307.12 74.8869 307.12C79.3135 307.12 83.0735 304.747 86.1669 300C89.2602 295.2 90.8069 288.613 90.8069 280.24C90.8069 271.813 89.2869 265.36 86.2469 260.88C83.2602 256.4 79.5535 254.16 75.1269 254.16ZM74.8869 308.32C68.8602 308.32 63.8469 306.053 59.8469 301.52C55.8469 296.933 53.8469 290.187 53.8469 281.28C53.8469 272.373 55.9002 265.44 60.0069 260.48C64.1135 255.467 69.1535 252.96 75.1269 252.96C81.1535 252.96 86.1669 255.307 90.1669 260C94.2202 264.64 96.2469 271.36 96.2469 280.16C96.2469 288.96 94.1935 295.867 90.0869 300.88C85.9802 305.84 80.9135 308.32 74.8869 308.32ZM125.438 254.72C129.491 254.72 132.984 255.84 135.918 258.08C138.904 260.32 140.398 263.867 140.398 268.72C140.398 275.227 137.651 281.973 132.158 288.96C129.438 292.427 126.904 295.413 124.558 297.92C122.211 300.427 119.224 303.387 115.598 306.8H140.238L141.837 293.6L143.358 294L142.158 308H109.518L108.638 306.8C117.598 298.107 124.238 290.8 128.558 284.88C132.878 278.907 135.038 273.493 135.038 268.64C135.038 266.08 134.451 263.493 133.278 260.88C132.584 259.44 131.491 258.267 129.998 257.36C128.558 256.453 126.878 256 124.957 256C121.491 256 117.464 256.96 112.878 258.88L110.638 259.76L110.238 258.96C112.424 257.787 114.931 256.8 117.758 256C120.584 255.147 123.144 254.72 125.438 254.72ZM169.984 255.04V308H164.944V256.56L152.224 259.44L152.144 257.92L164.944 255.04H169.984Z" fill="white"/> -->
</svg>
