<svg width="100%" height="100%" viewBox="0 0 342 385" fill="none" xmlns="http://www.w3.org/2000/svg">
<line x1="103.145" y1="37" x2="103.145" y2="333" stroke="#C6E8EA" stroke-width="6"/>
<line x1="100.776" y1="34.6312" x2="146.949" y2="47.003" stroke="#C6E8EA" stroke-width="6"/>
<line x1="142.774" y1="29.1016" x2="182.99" y2="39.8455" stroke="#C6E8EA" stroke-width="6"/>
<line x1="100.934" y1="330.054" x2="208.95" y2="358.996" stroke="#C6E8EA" stroke-width="6"/>
<line x1="145.712" y1="193.85" x2="209.087" y2="210.831" stroke="#C6E8EA" stroke-width="6"/>
<line x1="178.725" y1="166.089" x2="235.813" y2="180.308" stroke="#C6E8EA" stroke-width="6"/>
<line x1="238.512" y1="257.677" x2="207.512" y2="211.677" stroke="#C6E8EA" stroke-width="6"/>
<line x1="259.466" y1="221.607" x2="233.466" y2="180.607" stroke="#C6E8EA" stroke-width="6"/>
<line x1="238" y1="249.995" x2="238.145" y2="345.995" stroke="#C6E8EA" stroke-width="6"/>
<line x1="259" y1="217.956" x2="260.145" y2="295.956" stroke="#C6E8EA" stroke-width="6"/>
<line x1="206.608" y1="359.424" x2="238.463" y2="340.423" stroke="#C6E8EA" stroke-width="6"/>
<line x1="146.805" y1="47.0627" x2="121.805" y2="113.063" stroke="#C6E8EA" stroke-width="6"/>
<line x1="180.821" y1="39.0213" x2="159.821" y2="97.0213" stroke="#C6E8EA" stroke-width="6"/>
<line x1="147.122" y1="195.846" x2="122.122" y2="110.846" stroke="#C6E8EA" stroke-width="6"/>
<line x1="179.207" y1="169.752" x2="160.271" y2="95.7353" stroke="#C6E8EA" stroke-width="6"/>
<line x1="99.7399" y1="35.0275" x2="143.74" y2="29.0275" stroke="#C6E8EA" stroke-width="6"/>
<line x1="144.588" y1="47.0523" x2="181.588" y2="40.0523" stroke="#C6E8EA" stroke-width="6"/>
<line x1="123.007" y1="109.224" x2="162.007" y2="93.2245" stroke="#C6E8EA" stroke-width="6"/>
<line x1="144.303" y1="194.632" x2="180.303" y2="166.632" stroke="#C6E8EA" stroke-width="6"/>
<line x1="205.919" y1="211.989" x2="233.919" y2="180.989" stroke="#C6E8EA" stroke-width="6"/>
<line x1="234.498" y1="254.345" x2="257.643" y2="219.345" stroke="#C6E8EA" stroke-width="6"/>
<line x1="237.276" y1="343.743" x2="261.276" y2="291.743" stroke="#C6E8EA" stroke-width="6"/>
<line x1="158.453" y1="190.816" x2="221.828" y2="207.797" stroke="#E2E07E" stroke-width="4"/>
<path d="M195 162.904L248.556 178.062" stroke="#E2E07E" stroke-width="4"/>
<line x1="243.095" y1="194.61" x2="235.095" y2="169.61" stroke="#E2E07E" stroke-width="4"/>
<line x1="173.103" y1="203.632" x2="165.103" y2="179.632" stroke="#E2E07E" stroke-width="4"/>
<line x1="246.145" y1="255" x2="246.145" y2="343" stroke="#E2E07E" stroke-width="4"/>
<line x1="245.836" y1="253.932" x2="269.836" y2="291.932" stroke="#E2E07E" stroke-width="4"/>
<line x1="270.145" y1="218" x2="270.145" y2="293" stroke="#E2E07E" stroke-width="4"/>
<line x1="157.033" y1="48.6594" x2="135.033" y2="111.659" stroke="#E2E07E" stroke-width="4"/>
<line x1="154.773" y1="50.0349" x2="191.773" y2="43.0349" stroke="#E2E07E" stroke-width="4"/>
<line x1="188.091" y1="52.4035" x2="193.091" y2="36.4035" stroke="#E2E07E" stroke-width="4"/>
<line x1="134.386" y1="111.15" x2="173.386" y2="95.1497" stroke="#E2E07E" stroke-width="4"/>
<line x1="174.054" y1="109.463" x2="171.2" y2="97.4629" stroke="#E2E07E" stroke-width="4"/>
<line x1="172.12" y1="99.3165" x2="176.12" y2="88.3165" stroke="#E2E07E" stroke-width="4"/>
<path d="M157.917 192.421L197 161.5" stroke="#E2E07E" stroke-width="4"/>
<line x1="219.661" y1="207.659" x2="247.661" y2="176.659" stroke="#E2E07E" stroke-width="4"/>
<line x1="263.649" y1="224.526" x2="275.649" y2="213.526" stroke="#E2E07E" stroke-width="4"/>
<line x1="243.172" y1="349.188" x2="251.172" y2="331.188" stroke="#E2E07E" stroke-width="4"/>
<line x1="65.8623" y1="24.2706" x2="159.862" y2="264.271" stroke="#35A4B4" stroke-width="4" stroke-dasharray="4 8 16 4 8 16"/>
<line x1="65.8623" y1="24.2706" x2="159.862" y2="264.271" stroke="black" stroke-opacity="0.2" stroke-width="4" stroke-dasharray="4 8 16 4 8 16"/>
<path d="M314.277 329.865L193.5 285.5" stroke="#35A4B4" stroke-width="4" stroke-dasharray="4 8 16 4 8 16"/>
<path d="M314.277 329.865L193.5 285.5" stroke="black" stroke-opacity="0.2" stroke-width="4" stroke-dasharray="4 8 16 4 8 16"/>
<line x1="58.8136" y1="366.39" x2="153.814" y2="296.39" stroke="#35A4B4" stroke-width="4" stroke-dasharray="4 8 16 4 8 16"/>
<line x1="58.8136" y1="366.39" x2="153.814" y2="296.39" stroke="black" stroke-opacity="0.2" stroke-width="4" stroke-dasharray="4 8 16 4 8 16"/>
</svg>
